<?xml version="1.0" standalone="no"?>
<!DOCTYPE svg PUBLIC "-//W3C//DTD SVG 20010904//EN"
 "http://www.w3.org/TR/2001/REC-SVG-20010904/DTD/svg10.dtd">
<svg version="1.0" xmlns="http://www.w3.org/2000/svg"
 width="155.000000pt" height="155.000000pt" viewBox="0 0 155.000000 155.000000"
 preserveAspectRatio="xMidYMid meet">
<metadata>
Created by potrace 1.11, written by Peter Selinger 2001-2013
</metadata>
<g transform="translate(0.000000,155.000000) scale(0.100000,-0.100000)"
fill="#000000" stroke="none">
<path d="M0 1540 c0 -5 23 -10 50 -10 28 0 50 5 50 10 0 6 -22 10 -50 10 -27
0 -50 -4 -50 -10z"/>
<path d="M110 1540 c0 -6 30 -10 70 -10 40 0 70 4 70 10 0 6 -30 10 -70 10
-40 0 -70 -4 -70 -10z"/>
<path d="M260 1540 c0 -6 30 -10 70 -10 40 0 70 4 70 10 0 6 -30 10 -70 10
-40 0 -70 -4 -70 -10z"/>
<path d="M410 1540 c0 -6 30 -10 70 -10 40 0 70 4 70 10 0 6 -30 10 -70 10
-40 0 -70 -4 -70 -10z"/>
<path d="M560 1540 c0 -6 30 -10 70 -10 40 0 70 4 70 10 0 6 -30 10 -70 10
-40 0 -70 -4 -70 -10z"/>
<path d="M710 1540 c0 -6 30 -10 70 -10 40 0 70 4 70 10 0 6 -30 10 -70 10
-40 0 -70 -4 -70 -10z"/>
<path d="M860 1540 c0 -6 30 -10 70 -10 40 0 70 4 70 10 0 6 -30 10 -70 10
-40 0 -70 -4 -70 -10z"/>
<path d="M1010 1540 c0 -6 30 -10 70 -10 40 0 70 4 70 10 0 6 -30 10 -70 10
-40 0 -70 -4 -70 -10z"/>
<path d="M1160 1540 c0 -6 30 -10 70 -10 40 0 70 4 70 10 0 6 -30 10 -70 10
-40 0 -70 -4 -70 -10z"/>
<path d="M1310 1540 c0 -6 30 -10 70 -10 40 0 70 4 70 10 0 6 -30 10 -70 10
-40 0 -70 -4 -70 -10z"/>
<path d="M1460 1540 c0 -5 20 -10 45 -10 25 0 45 5 45 10 0 6 -20 10 -45 10
-25 0 -45 -4 -45 -10z"/>
<path d="M0 1450 l0 -70 50 0 50 0 0 70 0 70 -50 0 -50 0 0 -70z m40 0 c0 -5
-4 -10 -10 -10 -5 0 -10 5 -10 10 0 6 5 10 10 10 6 0 10 -4 10 -10z"/>
<path d="M110 1450 l0 -70 70 0 70 0 0 70 0 70 -70 0 -70 0 0 -70z m80 0 c0
-5 -4 -10 -10 -10 -5 0 -10 5 -10 10 0 6 5 10 10 10 6 0 10 -4 10 -10z"/>
<path d="M260 1450 l0 -70 70 0 70 0 0 70 0 70 -70 0 -70 0 0 -70z m80 0 c0
-5 -4 -10 -10 -10 -5 0 -10 5 -10 10 0 6 5 10 10 10 6 0 10 -4 10 -10z"/>
<path d="M410 1450 l0 -70 70 0 70 0 0 70 0 70 -70 0 -70 0 0 -70z m80 0 c0
-5 -4 -10 -10 -10 -5 0 -10 5 -10 10 0 6 5 10 10 10 6 0 10 -4 10 -10z"/>
<path d="M560 1450 l0 -70 70 0 70 0 0 70 0 70 -70 0 -70 0 0 -70z m80 0 c0
-5 -4 -10 -10 -10 -5 0 -10 5 -10 10 0 6 5 10 10 10 6 0 10 -4 10 -10z"/>
<path d="M710 1450 l0 -70 70 0 70 0 0 70 0 70 -70 0 -70 0 0 -70z m80 0 c0
-5 -4 -10 -10 -10 -5 0 -10 5 -10 10 0 6 5 10 10 10 6 0 10 -4 10 -10z"/>
<path d="M860 1450 l0 -70 70 0 70 0 0 70 0 70 -70 0 -70 0 0 -70z m80 0 c0
-5 -4 -10 -10 -10 -5 0 -10 5 -10 10 0 6 5 10 10 10 6 0 10 -4 10 -10z"/>
<path d="M1010 1450 l0 -70 70 0 70 0 0 70 0 70 -70 0 -70 0 0 -70z m80 0 c0
-5 -4 -10 -10 -10 -5 0 -10 5 -10 10 0 6 5 10 10 10 6 0 10 -4 10 -10z"/>
<path d="M1160 1450 l0 -70 70 0 70 0 0 70 0 70 -70 0 -70 0 0 -70z m80 0 c0
-5 -4 -10 -10 -10 -5 0 -10 5 -10 10 0 6 5 10 10 10 6 0 10 -4 10 -10z"/>
<path d="M1310 1450 l0 -70 70 0 70 0 0 70 0 70 -70 0 -70 0 0 -70z m80 0 c0
-5 -4 -10 -10 -10 -5 0 -10 5 -10 10 0 6 5 10 10 10 6 0 10 -4 10 -10z"/>
<path d="M1460 1450 l0 -70 45 0 45 0 0 70 0 70 -45 0 -45 0 0 -70z m80 0 c0
-5 -4 -10 -10 -10 -5 0 -10 5 -10 10 0 6 5 10 10 10 6 0 10 -4 10 -10z"/>
<path d="M0 1300 l0 -70 50 0 50 0 0 70 0 70 -50 0 -50 0 0 -70z m40 0 c0 -5
-4 -10 -10 -10 -5 0 -10 5 -10 10 0 6 5 10 10 10 6 0 10 -4 10 -10z"/>
<path d="M110 1300 l0 -70 70 0 70 0 0 70 0 70 -70 0 -70 0 0 -70z m80 0 c0
-5 -4 -10 -10 -10 -5 0 -10 5 -10 10 0 6 5 10 10 10 6 0 10 -4 10 -10z"/>
<path d="M260 1300 l0 -70 70 0 70 0 0 70 0 70 -70 0 -70 0 0 -70z m80 0 c0
-5 -4 -10 -10 -10 -5 0 -10 5 -10 10 0 6 5 10 10 10 6 0 10 -4 10 -10z"/>
<path d="M410 1300 l0 -70 70 0 70 0 0 70 0 70 -70 0 -70 0 0 -70z m80 0 c0
-5 -4 -10 -10 -10 -5 0 -10 5 -10 10 0 6 5 10 10 10 6 0 10 -4 10 -10z"/>
<path d="M560 1300 l0 -70 70 0 70 0 0 70 0 70 -70 0 -70 0 0 -70z m80 0 c0
-5 -4 -10 -10 -10 -5 0 -10 5 -10 10 0 6 5 10 10 10 6 0 10 -4 10 -10z"/>
<path d="M710 1300 l0 -70 70 0 70 0 0 70 0 70 -70 0 -70 0 0 -70z m80 0 c0
-5 -4 -10 -10 -10 -5 0 -10 5 -10 10 0 6 5 10 10 10 6 0 10 -4 10 -10z"/>
<path d="M860 1300 l0 -70 70 0 70 0 0 70 0 70 -70 0 -70 0 0 -70z m80 0 c0
-5 -4 -10 -10 -10 -5 0 -10 5 -10 10 0 6 5 10 10 10 6 0 10 -4 10 -10z"/>
<path d="M1010 1300 l0 -70 70 0 70 0 0 70 0 70 -70 0 -70 0 0 -70z m80 0 c0
-5 -4 -10 -10 -10 -5 0 -10 5 -10 10 0 6 5 10 10 10 6 0 10 -4 10 -10z"/>
<path d="M1160 1300 l0 -70 70 0 70 0 0 70 0 70 -70 0 -70 0 0 -70z m80 0 c0
-5 -4 -10 -10 -10 -5 0 -10 5 -10 10 0 6 5 10 10 10 6 0 10 -4 10 -10z"/>
<path d="M1310 1300 l0 -70 70 0 70 0 0 70 0 70 -70 0 -70 0 0 -70z m80 0 c0
-5 -4 -10 -10 -10 -5 0 -10 5 -10 10 0 6 5 10 10 10 6 0 10 -4 10 -10z"/>
<path d="M1460 1300 l0 -70 45 0 45 0 0 70 0 70 -45 0 -45 0 0 -70z m80 0 c0
-5 -4 -10 -10 -10 -5 0 -10 5 -10 10 0 6 5 10 10 10 6 0 10 -4 10 -10z"/>
<path d="M0 1150 l0 -70 50 0 50 0 0 70 0 70 -50 0 -50 0 0 -70z m40 0 c0 -5
-4 -10 -10 -10 -5 0 -10 5 -10 10 0 6 5 10 10 10 6 0 10 -4 10 -10z"/>
<path d="M110 1150 l0 -70 70 0 70 0 0 70 0 70 -70 0 -70 0 0 -70z m80 0 c0
-5 -4 -10 -10 -10 -5 0 -10 5 -10 10 0 6 5 10 10 10 6 0 10 -4 10 -10z"/>
<path d="M260 1150 l0 -70 70 0 70 0 0 70 0 70 -70 0 -70 0 0 -70z m80 0 c0
-5 -4 -10 -10 -10 -5 0 -10 5 -10 10 0 6 5 10 10 10 6 0 10 -4 10 -10z"/>
<path d="M410 1150 l0 -70 70 0 70 0 0 70 0 70 -70 0 -70 0 0 -70z m80 0 c0
-5 -4 -10 -10 -10 -5 0 -10 5 -10 10 0 6 5 10 10 10 6 0 10 -4 10 -10z"/>
<path d="M560 1150 l0 -70 70 0 70 0 0 70 0 70 -70 0 -70 0 0 -70z m80 0 c0
-5 -4 -10 -10 -10 -5 0 -10 5 -10 10 0 6 5 10 10 10 6 0 10 -4 10 -10z"/>
<path d="M710 1150 l0 -70 70 0 70 0 0 70 0 70 -70 0 -70 0 0 -70z m80 0 c0
-5 -4 -10 -10 -10 -5 0 -10 5 -10 10 0 6 5 10 10 10 6 0 10 -4 10 -10z"/>
<path d="M860 1150 l0 -70 70 0 70 0 0 70 0 70 -70 0 -70 0 0 -70z m80 0 c0
-5 -4 -10 -10 -10 -5 0 -10 5 -10 10 0 6 5 10 10 10 6 0 10 -4 10 -10z"/>
<path d="M1010 1150 l0 -70 70 0 70 0 0 70 0 70 -70 0 -70 0 0 -70z m80 0 c0
-5 -4 -10 -10 -10 -5 0 -10 5 -10 10 0 6 5 10 10 10 6 0 10 -4 10 -10z"/>
<path d="M1160 1150 l0 -70 70 0 70 0 0 70 0 70 -70 0 -70 0 0 -70z m80 0 c0
-5 -4 -10 -10 -10 -5 0 -10 5 -10 10 0 6 5 10 10 10 6 0 10 -4 10 -10z"/>
<path d="M1310 1150 l0 -70 70 0 70 0 0 70 0 70 -70 0 -70 0 0 -70z m80 0 c0
-5 -4 -10 -10 -10 -5 0 -10 5 -10 10 0 6 5 10 10 10 6 0 10 -4 10 -10z"/>
<path d="M1460 1150 l0 -70 45 0 45 0 0 70 0 70 -45 0 -45 0 0 -70z m80 0 c0
-5 -4 -10 -10 -10 -5 0 -10 5 -10 10 0 6 5 10 10 10 6 0 10 -4 10 -10z"/>
<path d="M0 1000 l0 -70 50 0 50 0 0 70 0 70 -50 0 -50 0 0 -70z m40 0 c0 -5
-4 -10 -10 -10 -5 0 -10 5 -10 10 0 6 5 10 10 10 6 0 10 -4 10 -10z"/>
<path d="M110 1000 l0 -70 70 0 70 0 0 70 0 70 -70 0 -70 0 0 -70z m80 0 c0
-5 -4 -10 -10 -10 -5 0 -10 5 -10 10 0 6 5 10 10 10 6 0 10 -4 10 -10z"/>
<path d="M260 1000 l0 -70 70 0 70 0 0 70 0 70 -70 0 -70 0 0 -70z m80 0 c0
-5 -4 -10 -10 -10 -5 0 -10 5 -10 10 0 6 5 10 10 10 6 0 10 -4 10 -10z"/>
<path d="M410 1000 l0 -70 70 0 70 0 0 70 0 70 -70 0 -70 0 0 -70z m80 0 c0
-5 -4 -10 -10 -10 -5 0 -10 5 -10 10 0 6 5 10 10 10 6 0 10 -4 10 -10z"/>
<path d="M560 1000 l0 -70 70 0 70 0 0 70 0 70 -70 0 -70 0 0 -70z m80 0 c0
-5 -4 -10 -10 -10 -5 0 -10 5 -10 10 0 6 5 10 10 10 6 0 10 -4 10 -10z"/>
<path d="M710 1000 l0 -70 70 0 70 0 0 70 0 70 -70 0 -70 0 0 -70z m80 0 c0
-5 -4 -10 -10 -10 -5 0 -10 5 -10 10 0 6 5 10 10 10 6 0 10 -4 10 -10z"/>
<path d="M860 1000 l0 -70 70 0 70 0 0 70 0 70 -70 0 -70 0 0 -70z m80 0 c0
-5 -4 -10 -10 -10 -5 0 -10 5 -10 10 0 6 5 10 10 10 6 0 10 -4 10 -10z"/>
<path d="M1010 1000 l0 -70 70 0 70 0 0 70 0 70 -70 0 -70 0 0 -70z m80 0 c0
-5 -4 -10 -10 -10 -5 0 -10 5 -10 10 0 6 5 10 10 10 6 0 10 -4 10 -10z"/>
<path d="M1160 1000 l0 -70 70 0 70 0 0 70 0 70 -70 0 -70 0 0 -70z m80 0 c0
-5 -4 -10 -10 -10 -5 0 -10 5 -10 10 0 6 5 10 10 10 6 0 10 -4 10 -10z"/>
<path d="M1310 1000 l0 -70 70 0 70 0 0 70 0 70 -70 0 -70 0 0 -70z m80 0 c0
-5 -4 -10 -10 -10 -5 0 -10 5 -10 10 0 6 5 10 10 10 6 0 10 -4 10 -10z"/>
<path d="M1460 1000 l0 -70 45 0 45 0 0 70 0 70 -45 0 -45 0 0 -70z m80 0 c0
-5 -4 -10 -10 -10 -5 0 -10 5 -10 10 0 6 5 10 10 10 6 0 10 -4 10 -10z"/>
<path d="M0 850 l0 -70 50 0 50 0 0 70 0 70 -50 0 -50 0 0 -70z m40 0 c0 -5
-4 -10 -10 -10 -5 0 -10 5 -10 10 0 6 5 10 10 10 6 0 10 -4 10 -10z"/>
<path d="M110 850 l0 -70 70 0 70 0 0 70 0 70 -70 0 -70 0 0 -70z m80 0 c0 -5
-4 -10 -10 -10 -5 0 -10 5 -10 10 0 6 5 10 10 10 6 0 10 -4 10 -10z"/>
<path d="M260 850 l0 -70 70 0 70 0 0 70 0 70 -70 0 -70 0 0 -70z m80 0 c0 -5
-4 -10 -10 -10 -5 0 -10 5 -10 10 0 6 5 10 10 10 6 0 10 -4 10 -10z"/>
<path d="M410 850 l0 -70 70 0 70 0 0 70 0 70 -70 0 -70 0 0 -70z m80 0 c0 -5
-4 -10 -10 -10 -5 0 -10 5 -10 10 0 6 5 10 10 10 6 0 10 -4 10 -10z"/>
<path d="M560 850 l0 -70 70 0 70 0 0 70 0 70 -70 0 -70 0 0 -70z m80 0 c0 -5
-4 -10 -10 -10 -5 0 -10 5 -10 10 0 6 5 10 10 10 6 0 10 -4 10 -10z"/>
<path d="M710 850 l0 -70 70 0 70 0 0 70 0 70 -70 0 -70 0 0 -70z m80 0 c0 -5
-4 -10 -10 -10 -5 0 -10 5 -10 10 0 6 5 10 10 10 6 0 10 -4 10 -10z"/>
<path d="M860 850 l0 -70 70 0 70 0 0 70 0 70 -70 0 -70 0 0 -70z m80 0 c0 -5
-4 -10 -10 -10 -5 0 -10 5 -10 10 0 6 5 10 10 10 6 0 10 -4 10 -10z"/>
<path d="M1010 850 l0 -70 70 0 70 0 0 70 0 70 -70 0 -70 0 0 -70z m80 0 c0
-5 -4 -10 -10 -10 -5 0 -10 5 -10 10 0 6 5 10 10 10 6 0 10 -4 10 -10z"/>
<path d="M1160 850 l0 -70 70 0 70 0 0 70 0 70 -70 0 -70 0 0 -70z m80 0 c0
-5 -4 -10 -10 -10 -5 0 -10 5 -10 10 0 6 5 10 10 10 6 0 10 -4 10 -10z"/>
<path d="M1310 850 l0 -70 70 0 70 0 0 70 0 70 -70 0 -70 0 0 -70z m80 0 c0
-5 -4 -10 -10 -10 -5 0 -10 5 -10 10 0 6 5 10 10 10 6 0 10 -4 10 -10z"/>
<path d="M1460 850 l0 -70 45 0 45 0 0 70 0 70 -45 0 -45 0 0 -70z m80 0 c0
-5 -4 -10 -10 -10 -5 0 -10 5 -10 10 0 6 5 10 10 10 6 0 10 -4 10 -10z"/>
<path d="M0 700 l0 -70 50 0 50 0 0 70 0 70 -50 0 -50 0 0 -70z m40 0 c0 -5
-4 -10 -10 -10 -5 0 -10 5 -10 10 0 6 5 10 10 10 6 0 10 -4 10 -10z"/>
<path d="M110 700 l0 -70 70 0 70 0 0 70 0 70 -70 0 -70 0 0 -70z m80 0 c0 -5
-4 -10 -10 -10 -5 0 -10 5 -10 10 0 6 5 10 10 10 6 0 10 -4 10 -10z"/>
<path d="M260 700 l0 -70 70 0 70 0 0 70 0 70 -70 0 -70 0 0 -70z m80 0 c0 -5
-4 -10 -10 -10 -5 0 -10 5 -10 10 0 6 5 10 10 10 6 0 10 -4 10 -10z"/>
<path d="M410 700 l0 -70 70 0 70 0 0 70 0 70 -70 0 -70 0 0 -70z m80 0 c0 -5
-4 -10 -10 -10 -5 0 -10 5 -10 10 0 6 5 10 10 10 6 0 10 -4 10 -10z"/>
<path d="M560 700 l0 -70 70 0 70 0 0 70 0 70 -70 0 -70 0 0 -70z m80 0 c0 -5
-4 -10 -10 -10 -5 0 -10 5 -10 10 0 6 5 10 10 10 6 0 10 -4 10 -10z"/>
<path d="M710 700 l0 -70 70 0 70 0 0 70 0 70 -70 0 -70 0 0 -70z m80 0 c0 -5
-4 -10 -10 -10 -5 0 -10 5 -10 10 0 6 5 10 10 10 6 0 10 -4 10 -10z"/>
<path d="M860 700 l0 -70 70 0 70 0 0 70 0 70 -70 0 -70 0 0 -70z m80 0 c0 -5
-4 -10 -10 -10 -5 0 -10 5 -10 10 0 6 5 10 10 10 6 0 10 -4 10 -10z"/>
<path d="M1010 700 l0 -70 70 0 70 0 0 70 0 70 -70 0 -70 0 0 -70z m80 0 c0
-5 -4 -10 -10 -10 -5 0 -10 5 -10 10 0 6 5 10 10 10 6 0 10 -4 10 -10z"/>
<path d="M1160 700 l0 -70 70 0 70 0 0 70 0 70 -70 0 -70 0 0 -70z m80 0 c0
-5 -4 -10 -10 -10 -5 0 -10 5 -10 10 0 6 5 10 10 10 6 0 10 -4 10 -10z"/>
<path d="M1310 700 l0 -70 70 0 70 0 0 70 0 70 -70 0 -70 0 0 -70z m80 0 c0
-5 -4 -10 -10 -10 -5 0 -10 5 -10 10 0 6 5 10 10 10 6 0 10 -4 10 -10z"/>
<path d="M1460 700 l0 -70 45 0 45 0 0 70 0 70 -45 0 -45 0 0 -70z m80 0 c0
-5 -4 -10 -10 -10 -5 0 -10 5 -10 10 0 6 5 10 10 10 6 0 10 -4 10 -10z"/>
<path d="M0 550 l0 -70 50 0 50 0 0 70 0 70 -50 0 -50 0 0 -70z m40 0 c0 -5
-4 -10 -10 -10 -5 0 -10 5 -10 10 0 6 5 10 10 10 6 0 10 -4 10 -10z"/>
<path d="M110 550 l0 -70 70 0 70 0 0 70 0 70 -70 0 -70 0 0 -70z m80 0 c0 -5
-4 -10 -10 -10 -5 0 -10 5 -10 10 0 6 5 10 10 10 6 0 10 -4 10 -10z"/>
<path d="M260 550 l0 -70 70 0 70 0 0 70 0 70 -70 0 -70 0 0 -70z m80 0 c0 -5
-4 -10 -10 -10 -5 0 -10 5 -10 10 0 6 5 10 10 10 6 0 10 -4 10 -10z"/>
<path d="M410 550 l0 -70 70 0 70 0 0 70 0 70 -70 0 -70 0 0 -70z m80 0 c0 -5
-4 -10 -10 -10 -5 0 -10 5 -10 10 0 6 5 10 10 10 6 0 10 -4 10 -10z"/>
<path d="M560 550 l0 -70 70 0 70 0 0 70 0 70 -70 0 -70 0 0 -70z m80 0 c0 -5
-4 -10 -10 -10 -5 0 -10 5 -10 10 0 6 5 10 10 10 6 0 10 -4 10 -10z"/>
<path d="M710 550 l0 -70 70 0 70 0 0 70 0 70 -70 0 -70 0 0 -70z m80 0 c0 -5
-4 -10 -10 -10 -5 0 -10 5 -10 10 0 6 5 10 10 10 6 0 10 -4 10 -10z"/>
<path d="M860 550 l0 -70 70 0 70 0 0 70 0 70 -70 0 -70 0 0 -70z m80 0 c0 -5
-4 -10 -10 -10 -5 0 -10 5 -10 10 0 6 5 10 10 10 6 0 10 -4 10 -10z"/>
<path d="M1010 550 l0 -70 70 0 70 0 0 70 0 70 -70 0 -70 0 0 -70z m80 0 c0
-5 -4 -10 -10 -10 -5 0 -10 5 -10 10 0 6 5 10 10 10 6 0 10 -4 10 -10z"/>
<path d="M1160 550 l0 -70 70 0 70 0 0 70 0 70 -70 0 -70 0 0 -70z m80 0 c0
-5 -4 -10 -10 -10 -5 0 -10 5 -10 10 0 6 5 10 10 10 6 0 10 -4 10 -10z"/>
<path d="M1310 550 l0 -70 70 0 70 0 0 70 0 70 -70 0 -70 0 0 -70z m80 0 c0
-5 -4 -10 -10 -10 -5 0 -10 5 -10 10 0 6 5 10 10 10 6 0 10 -4 10 -10z"/>
<path d="M1460 550 l0 -70 45 0 45 0 0 70 0 70 -45 0 -45 0 0 -70z m80 0 c0
-5 -4 -10 -10 -10 -5 0 -10 5 -10 10 0 6 5 10 10 10 6 0 10 -4 10 -10z"/>
<path d="M0 400 l0 -70 50 0 50 0 0 70 0 70 -50 0 -50 0 0 -70z m40 0 c0 -5
-4 -10 -10 -10 -5 0 -10 5 -10 10 0 6 5 10 10 10 6 0 10 -4 10 -10z"/>
<path d="M110 400 l0 -70 70 0 70 0 0 70 0 70 -70 0 -70 0 0 -70z m80 0 c0 -5
-4 -10 -10 -10 -5 0 -10 5 -10 10 0 6 5 10 10 10 6 0 10 -4 10 -10z"/>
<path d="M260 400 l0 -70 70 0 70 0 0 70 0 70 -70 0 -70 0 0 -70z m80 0 c0 -5
-4 -10 -10 -10 -5 0 -10 5 -10 10 0 6 5 10 10 10 6 0 10 -4 10 -10z"/>
<path d="M410 400 l0 -70 70 0 70 0 0 70 0 70 -70 0 -70 0 0 -70z m80 0 c0 -5
-4 -10 -10 -10 -5 0 -10 5 -10 10 0 6 5 10 10 10 6 0 10 -4 10 -10z"/>
<path d="M560 400 l0 -70 70 0 70 0 0 70 0 70 -70 0 -70 0 0 -70z m80 0 c0 -5
-4 -10 -10 -10 -5 0 -10 5 -10 10 0 6 5 10 10 10 6 0 10 -4 10 -10z"/>
<path d="M710 400 l0 -70 70 0 70 0 0 70 0 70 -70 0 -70 0 0 -70z m80 0 c0 -5
-4 -10 -10 -10 -5 0 -10 5 -10 10 0 6 5 10 10 10 6 0 10 -4 10 -10z"/>
<path d="M860 400 l0 -70 70 0 70 0 0 70 0 70 -70 0 -70 0 0 -70z m80 0 c0 -5
-4 -10 -10 -10 -5 0 -10 5 -10 10 0 6 5 10 10 10 6 0 10 -4 10 -10z"/>
<path d="M1010 400 l0 -70 70 0 70 0 0 70 0 70 -70 0 -70 0 0 -70z m80 0 c0
-5 -4 -10 -10 -10 -5 0 -10 5 -10 10 0 6 5 10 10 10 6 0 10 -4 10 -10z"/>
<path d="M1160 400 l0 -70 70 0 70 0 0 70 0 70 -70 0 -70 0 0 -70z m80 0 c0
-5 -4 -10 -10 -10 -5 0 -10 5 -10 10 0 6 5 10 10 10 6 0 10 -4 10 -10z"/>
<path d="M1310 400 l0 -70 70 0 70 0 0 70 0 70 -70 0 -70 0 0 -70z m80 0 c0
-5 -4 -10 -10 -10 -5 0 -10 5 -10 10 0 6 5 10 10 10 6 0 10 -4 10 -10z"/>
<path d="M1460 400 l0 -70 45 0 45 0 0 70 0 70 -45 0 -45 0 0 -70z m80 0 c0
-5 -4 -10 -10 -10 -5 0 -10 5 -10 10 0 6 5 10 10 10 6 0 10 -4 10 -10z"/>
<path d="M0 250 l0 -70 50 0 50 0 0 70 0 70 -50 0 -50 0 0 -70z m40 0 c0 -5
-4 -10 -10 -10 -5 0 -10 5 -10 10 0 6 5 10 10 10 6 0 10 -4 10 -10z"/>
<path d="M110 250 l0 -70 70 0 70 0 0 70 0 70 -70 0 -70 0 0 -70z m80 0 c0 -5
-4 -10 -10 -10 -5 0 -10 5 -10 10 0 6 5 10 10 10 6 0 10 -4 10 -10z"/>
<path d="M260 250 l0 -70 70 0 70 0 0 70 0 70 -70 0 -70 0 0 -70z m80 0 c0 -5
-4 -10 -10 -10 -5 0 -10 5 -10 10 0 6 5 10 10 10 6 0 10 -4 10 -10z"/>
<path d="M410 250 l0 -70 70 0 70 0 0 70 0 70 -70 0 -70 0 0 -70z m80 0 c0 -5
-4 -10 -10 -10 -5 0 -10 5 -10 10 0 6 5 10 10 10 6 0 10 -4 10 -10z"/>
<path d="M560 250 l0 -70 70 0 70 0 0 70 0 70 -70 0 -70 0 0 -70z m80 0 c0 -5
-4 -10 -10 -10 -5 0 -10 5 -10 10 0 6 5 10 10 10 6 0 10 -4 10 -10z"/>
<path d="M710 250 l0 -70 70 0 70 0 0 70 0 70 -70 0 -70 0 0 -70z m80 0 c0 -5
-4 -10 -10 -10 -5 0 -10 5 -10 10 0 6 5 10 10 10 6 0 10 -4 10 -10z"/>
<path d="M860 250 l0 -70 70 0 70 0 0 70 0 70 -70 0 -70 0 0 -70z m80 0 c0 -5
-4 -10 -10 -10 -5 0 -10 5 -10 10 0 6 5 10 10 10 6 0 10 -4 10 -10z"/>
<path d="M1010 250 l0 -70 70 0 70 0 0 70 0 70 -70 0 -70 0 0 -70z m80 0 c0
-5 -4 -10 -10 -10 -5 0 -10 5 -10 10 0 6 5 10 10 10 6 0 10 -4 10 -10z"/>
<path d="M1160 250 l0 -70 70 0 70 0 0 70 0 70 -70 0 -70 0 0 -70z m80 0 c0
-5 -4 -10 -10 -10 -5 0 -10 5 -10 10 0 6 5 10 10 10 6 0 10 -4 10 -10z"/>
<path d="M1310 250 l0 -70 70 0 70 0 0 70 0 70 -70 0 -70 0 0 -70z m80 0 c0
-5 -4 -10 -10 -10 -5 0 -10 5 -10 10 0 6 5 10 10 10 6 0 10 -4 10 -10z"/>
<path d="M1460 250 l0 -70 45 0 45 0 0 70 0 70 -45 0 -45 0 0 -70z m80 0 c0
-5 -4 -10 -10 -10 -5 0 -10 5 -10 10 0 6 5 10 10 10 6 0 10 -4 10 -10z"/>
<path d="M0 100 l0 -70 50 0 50 0 0 70 0 70 -50 0 -50 0 0 -70z m40 0 c0 -5
-4 -10 -10 -10 -5 0 -10 5 -10 10 0 6 5 10 10 10 6 0 10 -4 10 -10z"/>
<path d="M110 100 l0 -70 70 0 70 0 0 70 0 70 -70 0 -70 0 0 -70z m80 0 c0 -5
-4 -10 -10 -10 -5 0 -10 5 -10 10 0 6 5 10 10 10 6 0 10 -4 10 -10z"/>
<path d="M260 100 l0 -70 70 0 70 0 0 70 0 70 -70 0 -70 0 0 -70z m80 0 c0 -5
-4 -10 -10 -10 -5 0 -10 5 -10 10 0 6 5 10 10 10 6 0 10 -4 10 -10z"/>
<path d="M410 100 l0 -70 70 0 70 0 0 70 0 70 -70 0 -70 0 0 -70z m80 0 c0 -5
-4 -10 -10 -10 -5 0 -10 5 -10 10 0 6 5 10 10 10 6 0 10 -4 10 -10z"/>
<path d="M560 100 l0 -70 70 0 70 0 0 70 0 70 -70 0 -70 0 0 -70z m80 0 c0 -5
-4 -10 -10 -10 -5 0 -10 5 -10 10 0 6 5 10 10 10 6 0 10 -4 10 -10z"/>
<path d="M710 100 l0 -70 70 0 70 0 0 70 0 70 -70 0 -70 0 0 -70z m80 0 c0 -5
-4 -10 -10 -10 -5 0 -10 5 -10 10 0 6 5 10 10 10 6 0 10 -4 10 -10z"/>
<path d="M860 100 l0 -70 70 0 70 0 0 70 0 70 -70 0 -70 0 0 -70z m80 0 c0 -5
-4 -10 -10 -10 -5 0 -10 5 -10 10 0 6 5 10 10 10 6 0 10 -4 10 -10z"/>
<path d="M1010 100 l0 -70 70 0 70 0 0 70 0 70 -70 0 -70 0 0 -70z m80 0 c0
-5 -4 -10 -10 -10 -5 0 -10 5 -10 10 0 6 5 10 10 10 6 0 10 -4 10 -10z"/>
<path d="M1160 100 l0 -70 70 0 70 0 0 70 0 70 -70 0 -70 0 0 -70z m80 0 c0
-5 -4 -10 -10 -10 -5 0 -10 5 -10 10 0 6 5 10 10 10 6 0 10 -4 10 -10z"/>
<path d="M1310 100 l0 -70 70 0 70 0 0 70 0 70 -70 0 -70 0 0 -70z m80 0 c0
-5 -4 -10 -10 -10 -5 0 -10 5 -10 10 0 6 5 10 10 10 6 0 10 -4 10 -10z"/>
<path d="M1460 100 l0 -70 45 0 45 0 0 70 0 70 -45 0 -45 0 0 -70z m80 0 c0
-5 -4 -10 -10 -10 -5 0 -10 5 -10 10 0 6 5 10 10 10 6 0 10 -4 10 -10z"/>
<path d="M0 10 c0 -5 23 -10 50 -10 28 0 50 5 50 10 0 6 -22 10 -50 10 -27 0
-50 -4 -50 -10z"/>
<path d="M110 10 c0 -6 30 -10 70 -10 40 0 70 4 70 10 0 6 -30 10 -70 10 -40
0 -70 -4 -70 -10z"/>
<path d="M260 10 c0 -6 30 -10 70 -10 40 0 70 4 70 10 0 6 -30 10 -70 10 -40
0 -70 -4 -70 -10z"/>
<path d="M410 10 c0 -6 30 -10 70 -10 40 0 70 4 70 10 0 6 -30 10 -70 10 -40
0 -70 -4 -70 -10z"/>
<path d="M560 10 c0 -6 30 -10 70 -10 40 0 70 4 70 10 0 6 -30 10 -70 10 -40
0 -70 -4 -70 -10z"/>
<path d="M710 10 c0 -6 30 -10 70 -10 40 0 70 4 70 10 0 6 -30 10 -70 10 -40
0 -70 -4 -70 -10z"/>
<path d="M860 10 c0 -6 30 -10 70 -10 40 0 70 4 70 10 0 6 -30 10 -70 10 -40
0 -70 -4 -70 -10z"/>
<path d="M1010 10 c0 -6 30 -10 70 -10 40 0 70 4 70 10 0 6 -30 10 -70 10 -40
0 -70 -4 -70 -10z"/>
<path d="M1160 10 c0 -6 30 -10 70 -10 40 0 70 4 70 10 0 6 -30 10 -70 10 -40
0 -70 -4 -70 -10z"/>
<path d="M1310 10 c0 -6 30 -10 70 -10 40 0 70 4 70 10 0 6 -30 10 -70 10 -40
0 -70 -4 -70 -10z"/>
<path d="M1460 10 c0 -5 20 -10 45 -10 25 0 45 5 45 10 0 6 -20 10 -45 10 -25
0 -45 -4 -45 -10z"/>
</g>
</svg>
